<svg xmlns="http://www.w3.org/2000/svg" version="1.1" xmlns:xlink="http://www.w3.org/1999/xlink"
            xmlns:svgjs="http://svgjs.dev/svgjs" width="70" height="70" viewBox="0 0 1000 1000">
            <g transform="matrix(1,0,0,1,-0.49999999999994316,-0.49999999999994316)"><svg viewBox="0 0 280 280"
                data-background-color="#050000" preserveAspectRatio="xMidYMid meet" height="1000" width="1000"
                xmlns="http://www.w3.org/2000/svg" xmlns:xlink="http://www.w3.org/1999/xlink">
                <g id="tight-bounds" transform="matrix(1,0,0,1,0.13999999999998636,0.13999999999998636)"><svg
                    viewBox="0 0 279.72 279.72" height="279.72" width="279.72">
                    <g><svg viewBox="0 0 279.72 279.72" height="279.72" width="279.72">
                        <g><svg viewBox="0 0 279.72 279.72" height="279.72" width="279.72">
                            <g id="textblocktransform"><svg viewBox="0 0 279.72 279.72" height="279.72" width="279.72"
                                id="textblock">
                                <g><svg viewBox="0 0 279.72 279.72" height="279.72" width="279.72">
                                    <g transform="matrix(1,0,0,1,73.92936372216631,74.71616151866226)"><svg
                                        viewBox="0 0 131.8612725556674 130.2876769626755" height="130.2876769626755"
                                        width="131.8612725556674">
                                        <g><svg xmlns="http://www.w3.org/2000/svg"
                                            xmlns:xlink="http://www.w3.org/1999/xlink" version="1.1" x="0" y="0"
                                            viewBox="7.679861068725586 8.78588581085205 80.37327575683594 79.41412353515625"
                                            enable-background="new 0 0 100 100" xml:space="preserve"
                                            height="130.2876769626755" width="131.8612725556674" class="icon-o-0"
                                            data-fill-palette-color="accent" id="o-0">
                                            <g fill="#ff0e00" data-fill-palette-color="accent">
                                              <path
                                                d="M30.1 27c0.2 0.6 0.8 0.9 1.4 0.9 0.2 0 0.4 0 0.6-0.1 0.8-0.3 1.1-1.2 0.8-2L25.7 9.7c-0.3-0.8-1.2-1.1-2-0.8-0.8 0.3-1.1 1.2-0.8 2L30.1 27z"
                                                fill="#ff0e00" data-fill-palette-color="accent"></path>
                                              <path
                                                d="M18.5 32.5c0.4 0 0.9-0.2 1.2-0.6 0.5-0.6 0.4-1.6-0.2-2.1l-9.4-7.5C9.5 21.9 8.5 22 8 22.6c-0.5 0.6-0.4 1.6 0.2 2.1l9.4 7.5C17.9 32.4 18.2 32.5 18.5 32.5z"
                                                fill="#ff0e00" data-fill-palette-color="accent"></path>
                                              <path
                                                d="M66.2 27.6c0.2 0.1 0.4 0.1 0.6 0.1 0.6 0 1.1-0.3 1.4-0.9l5.6-12.2c0.3-0.8 0-1.6-0.7-2-0.8-0.3-1.6 0-2 0.7l-5.6 12.2C65.1 26.3 65.4 27.2 66.2 27.6z"
                                                fill="#ff0e00" data-fill-palette-color="accent"></path>
                                              <path
                                                d="M87.5 21.2c-0.6-0.5-1.6-0.5-2.1 0.2L77.9 30c-0.5 0.6-0.5 1.6 0.2 2.1 0.3 0.2 0.6 0.4 1 0.4 0.4 0 0.8-0.2 1.1-0.5l7.5-8.7C88.2 22.7 88.2 21.7 87.5 21.2z"
                                                fill="#ff0e00" data-fill-palette-color="accent"></path>
                                              <path
                                                d="M48.9 25.8C49 25.8 49 25.8 48.9 25.8c0.9 0 1.5-0.6 1.5-1.4L50.8 14c0-0.8-0.6-1.5-1.4-1.5-0.8 0-1.5 0.6-1.5 1.4l-0.3 10.3C47.5 25.1 48.1 25.8 48.9 25.8z"
                                                fill="#ff0e00" data-fill-palette-color="accent"></path>
                                              <path
                                                d="M86.7 60.4c-0.1-0.4-0.3-0.7-0.6-0.9-0.6-1-1.8-2.4-3.8-3.7 0.3-0.4 0.6-0.7 0.7-1.1 0 0 0-0.1 0-0.1 0.1-0.3 2-8.4-3.9-14.4-4.3-4.3-17.4-7.6-30-7.6-6.8 0-16.5 1-24.1 5.6-0.9 0.5-10.3 6.1-8.9 18.1 0.1 0.5 0.2 0.9 0.5 1.3-2.9 2.1-5.8 4.7-5.5 6.7 0.1 0.4 0.4 1.5 1.8 2 0.6 0.2 1.2 0.3 1.9 0.3 1.5 0 2.7-0.5 3.6-0.9 0 0 0 0 0 0 0 0.1 0 0.1 0 0.2 0.1 0.6 0.1 1.3 0.3 2.1-0.1 0.1-0.1 0.3-0.2 0.4-1.3 0.6-2.9 1.7-3 3.3 0 0.1 0 0.3-0.1 0.4-0.9 6.3 1.2 10.5 6.3 12.3 4.7 1.7 13.1 3.8 25.1 3.8 6 0 12.9-0.5 20.7-1.9 15.2-2.7 16.4-5.4 15.9-13.1 0-0.5-0.1-1-0.1-1.6 0-1-0.5-1.8-1.2-2.3-0.5-0.4-1.1-0.6-1.7-0.7 1.1-0.1 2.3-0.3 3.4-0.6 0.5-0.1 0.9-0.5 1.1-1l1.8-5.5c0.1-0.3 0.1-0.6 0-1C86.8 60.5 86.7 60.4 86.7 60.4zM22.8 81.6c-4.7-1.7-4.9-5.5-4.4-9 0-0.2 0.1-0.4 0.1-0.5 0-0.1 0.2-0.2 0.3-0.4 0.4 0.3 1.4 0.7 2.7 1.2 0.2 0.1 0.4 0.1 0.6 0.2 3.1 1 7.9 2.2 13.8 3 0.9 1.4 2 2.5 3.4 2.5 0.5 0 0.9-0.1 1.4-0.3 0.7-0.3 1.2-0.9 1.5-1.5 10.9 0.8 24.2-0.1 37.2-5.4 0.5 0.1 0.8 0.2 0.9 0.3 0 0.6 0.1 1.1 0.1 1.6 0.4 5.9 0.5 7.5-13.4 10C44.3 87.4 29.6 84 22.8 81.6zM26.6 40.7c7-4.3 16.1-5.2 22.5-5.2 12.7 0 24.6 3.5 27.9 6.7 4.5 4.5 3.3 10.7 3.2 11.4-0.1 0.2-0.3 0.4-0.6 0.6-0.4 0.3-1.1 0.6-1.9 0.9-0.6 0.2-1.3 0.5-2.1 0.7-1.2 0.3-2.5 0.7-4 1-0.8 0.2-1.7 0.3-2.6 0.5-0.6 0.1-1.2 0.2-1.8 0.3-0.8 0.1-1.6 0.2-2.4 0.4-0.7 0.1-1.4 0.2-2.2 0.3-0.7 0.1-1.3 0.2-2 0.2-0.7 0.1-1.4 0.2-2.2 0.2-1 0.1-1.9 0.2-3 0.3-4.3 0.3-9 0.5-13.9 0.5 0 0 0 0 0 0-10 0-15.8-0.9-19-1.8-0.9-0.3-1.7-0.6-2.2-0.8-0.8-0.4-1.2-0.8-1.2-1.1 0 0 0 0 0 0C17.9 45.4 26.1 40.9 26.6 40.7 26.5 40.7 26.6 40.7 26.6 40.7zM33.8 69.2c-0.5 0-0.8 0-0.8 0l-1.5-0.8c1.1-0.7 1.8-1 2.1-1.2 0 0.1 0 0.3 0 0.5C33.7 68 33.7 68.6 33.8 69.2zM69.9 68c-0.5 0.7-1 1.1-2 1-1.5-0.2-1.5 0-2.2-0.7-0.4-0.4-1.1-1.1-1.9-1.4 0-0.1 0.1-0.3 0.1-0.4C65.7 67 67.7 67.6 69.9 68zM52.2 69.8c0.1-0.3 0.2-0.6 0.3-0.9 0.1-0.7 1.6-0.8 1.9-0.8 1.4 0 3 0.5 4.1 1.3 0.1 0.1 0.2 0.1 0.3 0.2-0.1 0.1-0.2 0.2-0.3 0.2-0.5 0.4-1 0.7-1.5 1.1-1.5 0.9-3.6 1.5-3.6 1.5s-3 1-4.5-0.5C50.4 71.9 51.6 71.1 52.2 69.8zM80.7 59.7c-2.8 0.2-5.3 0.1-7.4-0.2 1-0.2 1.9-0.5 2.8-0.7 1.3-0.4 2.5-0.8 3.4-1.3 1.2 0.6 2.2 1.3 2.8 2C81.8 59.6 81.3 59.7 80.7 59.7zM19 59.6c1.4 0.8 3.4 1.4 5.9 1.9l-1.8 3c-0.4 0.7-0.2 1.6 0.5 2.1 0.2 0.1 0.5 0.2 0.8 0.2 0.5 0 1-0.3 1.3-0.7l2.4-4c3.4 0.4 7.6 0.6 12.4 0.7l0.4 2.3c0.1 0.7 0.8 1.2 1.5 1.2 0.1 0 0.2 0 0.3 0 0.8-0.2 1.3-0.9 1.2-1.8l-0.3-1.8c3.6-0.1 8-0.2 12.5-0.6 0.8-0.1 1.5-0.1 2.3-0.2 0.4 0 0.7-0.1 1.1-0.1 0.5 0.6 0.9 1.3 1.2 1.9 0.3 0.6 0.4 1.3 0.4 1.8 0 0.2 0 0.4 0 0.6-0.1 0.8-0.5 1.2-0.5 1.2 0 0-0.1 0-0.1-0.1-1.6-1.2-3.8-1.9-5.9-1.9-2.6 0-4.4 1.2-4.8 3.2 0 0.2-0.1 0.6-0.9 0.6-0.8 0-2.2-0.5-3.3-1.6-0.5-0.5-1.1-0.8-1.7-0.8-1.2 0-1.8 0.8-2.2 2-0.1 0.3-0.2 0.6-0.3 1-0.1 0.5-0.2 1-0.3 1.5-0.2 1.5-0.7 4.1-1.5 4.6-0.8-0.3-2.1-3.5-2.5-6.2 0-0.1 0-0.3-0.1-0.4-0.1-0.5-0.1-0.9-0.1-1.4 0-3.2-1.9-3.6-2.7-3.6-1 0-2.5 0.4-6 3.1-0.6 0.4-1.2 0.9-1.9 1.5-0.2 0.2-0.5 0.4-0.7 0.5-1.2 0.9-1.9 1-2.2 1-0.4 0-0.7-0.4-1-1 0 0 0 0 0 0-0.1-0.3-0.2-0.6-0.3-0.9-0.1-0.5-0.2-1-0.3-1.5-0.1-0.5-0.1-0.9-0.1-1.2 0-0.5-0.1-0.9-0.1-1.2-0.2-1.5-1.3-2-2.1-2-0.6 0-1.2 0.2-1.9 0.5-0.9 0.3-1.9 0.8-2.9 0.6C15.1 62.6 17 61 19 59.6zM82.4 65.3c-0.9 0.2-1.8 0.3-2.6 0.4-2.4 0.2-4.8 0.1-7-0.2-3.5-0.5-6.6-1.4-9.1-2.3-0.2-0.6-0.4-1.2-0.8-1.8 1.3-0.2 2.6-0.3 3.9-0.5 2.6 1.1 6.2 2.1 11 2.1 1.7 0 3.6-0.1 5.6-0.4L82.4 65.3z"
                                                fill="#ff0e00" data-fill-palette-color="accent"></path>
                                            </g>
                                          </svg></g>
                                      </svg></g>
                                    <path
                                      d="M11.622 186.221l-1.376-4.048 26.78-9.102 5.708 16.793-3.295 1.119-4.332-12.745-8.453 2.873 3.59 10.562-3.248 1.103-3.589-10.561zM21.531 209.04l-2.124-3.71 24.547-14.052 4.836 8.447c1.11 1.938 1.696 3.722 1.758 5.352 0.059 1.624-0.292 3.058-1.054 4.303-0.761 1.245-1.818 2.255-3.169 3.029v0c-1.524 0.873-3.137 1.257-4.838 1.154-1.698-0.097-3.306-0.845-4.825-2.244v0l-7.421 11.19-2.469-4.314 7.156-10.432-2.509-4.383zM42.955 196.776l-8.732 4.999 2.593 4.53c0.962 1.68 2.077 2.675 3.348 2.986 1.268 0.32 2.555 0.107 3.861-0.64v0c1.311-0.751 2.136-1.738 2.473-2.963 0.341-1.219 0.018-2.691-0.97-4.416v0zM46.091 242.093l-11.821-13.541 21.307-18.602 11.821 13.541-2.621 2.289-9.01-10.321-6.635 5.793 8.212 9.407-2.554 2.23-8.212-9.407-6.876 6.002 9.01 10.32zM59.594 253.335v0c-1.651-1.257-2.875-2.647-3.672-4.17-0.803-1.528-1.145-3.092-1.026-4.692 0.119-1.601 0.732-3.15 1.839-4.648v0l3.599 2.74c-0.894 1.218-1.255 2.556-1.081 4.013 0.183 1.456 1.013 2.745 2.49 3.87v0c1.308 0.996 2.572 1.458 3.792 1.387 1.225-0.067 2.213-0.593 2.964-1.579v0c0.602-0.791 0.915-1.569 0.939-2.334 0.02-0.759-0.153-1.533-0.52-2.32-0.367-0.787-0.847-1.611-1.442-2.472-0.6-0.865-1.225-1.778-1.875-2.74v0c-1.299-1.905-2.029-3.648-2.191-5.229-0.168-1.585 0.319-3.127 1.459-4.625v0c0.942-1.282 2.079-2.162 3.409-2.64 1.33-0.478 2.745-0.559 4.245-0.242 1.504 0.312 2.996 1.032 4.479 2.16v0c1.455 1.108 2.53 2.351 3.222 3.728 0.702 1.376 1.001 2.778 0.896 4.206-0.11 1.424-0.633 2.779-1.57 4.065v0l-3.607-2.746c0.442-0.58 0.711-1.246 0.807-1.997 0.106-0.752 0-1.52-0.319-2.305-0.319-0.784-0.895-1.494-1.729-2.128v0c-1.06-0.84-2.15-1.246-3.272-1.216-1.118 0.024-2.052 0.529-2.802 1.514v0c-0.67 0.881-0.926 1.752-0.767 2.616 0.15 0.864 0.558 1.795 1.223 2.792 0.665 0.998 1.42 2.139 2.266 3.425v0c0.836 1.211 1.499 2.408 1.99 3.589 0.487 1.187 0.675 2.396 0.563 3.627-0.111 1.24-0.656 2.503-1.636 3.79v0c-0.863 1.134-1.956 1.968-3.279 2.502-1.323 0.534-2.795 0.667-4.416 0.4-1.626-0.272-3.285-1.052-4.978-2.341zM78.433 264.374l-3.86-1.837 12.152-25.541 3.86 1.837-5.207 10.943 12.371 5.886 5.207-10.943 3.87 1.841-12.153 25.541-3.869-1.841 5.433-11.42-12.371-5.886zM120.882 278.489l-17.508-4.069 6.402-27.551 17.509 4.069-0.788 3.389-13.344-3.101-1.994 8.58 12.163 2.827-0.768 3.302-12.163-2.827-2.066 8.89 13.345 3.101zM138.407 279.714v0c-2.074-0.055-3.88-0.467-5.418-1.236-1.544-0.77-2.736-1.839-3.576-3.207-0.839-1.368-1.248-2.983-1.225-4.846v0l4.522 0.119c-0.013 1.511 0.476 2.807 1.469 3.887 0.999 1.074 2.427 1.635 4.282 1.684v0c1.643 0.043 2.939-0.321 3.888-1.091 0.955-0.771 1.449-1.775 1.481-3.014v0c0.026-0.994-0.175-1.808-0.602-2.443-0.428-0.628-1.021-1.154-1.778-1.578-0.758-0.424-1.63-0.812-2.615-1.163-0.992-0.351-2.033-0.726-3.123-1.126v0c-2.167-0.786-3.779-1.773-4.835-2.962-1.063-1.188-1.569-2.723-1.52-4.605v0c0.015-1.591 0.423-2.969 1.222-4.134 0.8-1.166 1.901-2.058 3.303-2.678 1.402-0.626 3.034-0.915 4.896-0.866v0c1.829 0.048 3.427 0.428 4.794 1.14 1.374 0.706 2.436 1.669 3.186 2.889 0.744 1.22 1.111 2.625 1.102 4.216v0l-4.532-0.12c0.019-0.729-0.151-1.426-0.512-2.092-0.354-0.672-0.889-1.233-1.606-1.683-0.718-0.45-1.6-0.689-2.647-0.716v0c-1.351-0.062-2.473 0.247-3.366 0.926-0.893 0.673-1.356 1.629-1.388 2.868v0c-0.029 1.106 0.273 1.963 0.907 2.569 0.627 0.613 1.502 1.13 2.625 1.551 1.123 0.421 2.403 0.905 3.84 1.454v0c1.386 0.494 2.624 1.077 3.713 1.748 1.089 0.678 1.948 1.55 2.577 2.614 0.635 1.071 0.931 2.415 0.889 4.031v0c-0.037 1.425-0.437 2.74-1.198 3.947-0.761 1.207-1.877 2.175-3.348 2.906-1.478 0.73-3.28 1.067-5.407 1.011zM166.076 276.654l-4.222 0.73-4.224-24.443-8.239 1.424-0.593-3.429 20.661-3.57 0.593 3.429-8.2 1.417zM196.126 267.024l-3.862 1.834-12.13-25.552 16.022-7.606 1.492 3.143-12.16 5.773 3.829 8.065 10.077-4.784 1.471 3.099-10.077 4.784zM224.954 249.109v0c-2.195 1.734-4.501 2.765-6.918 3.095-2.417 0.33-4.771 0.001-7.062-0.985-2.295-0.992-4.336-2.619-6.122-4.881v0c-1.783-2.257-2.891-4.617-3.324-7.08-0.429-2.457-0.203-4.823 0.678-7.097 0.881-2.275 2.418-4.279 4.614-6.013v0c2.2-1.738 4.509-2.771 6.925-3.101 2.417-0.33 4.766 0.003 7.047 0.998 2.284 1 4.318 2.628 6.101 4.885v0c1.787 2.263 2.902 4.621 3.345 7.075 0.439 2.449 0.218 4.811-0.663 7.086-0.881 2.275-2.421 4.281-4.621 6.018zM222.576 246.098v0c1.524-1.204 2.583-2.589 3.178-4.157 0.6-1.572 0.716-3.243 0.348-5.013-0.368-1.77-1.246-3.534-2.635-5.293v0c-1.384-1.753-2.895-3.013-4.532-3.781-1.637-0.768-3.289-1.042-4.957-0.823-1.663 0.215-3.256 0.925-4.78 2.129v0c-1.519 1.2-2.583 2.589-3.193 4.169-0.605 1.576-0.719 3.245-0.341 5.007 0.378 1.762 1.259 3.52 2.644 5.272v0c1.388 1.758 2.896 3.025 4.522 3.801 1.627 0.776 3.276 1.053 4.95 0.829 1.678-0.228 3.277-0.941 4.796-2.14zM249.257 223.354v0c-1.668 2.245-3.625 3.842-5.873 4.79-2.248 0.948-4.606 1.244-7.074 0.888-2.474-0.36-4.868-1.399-7.183-3.118v0c-2.309-1.715-3.994-3.705-5.053-5.969-1.054-2.26-1.452-4.604-1.194-7.029 0.258-2.426 1.22-4.761 2.888-7.007v0c1.672-2.251 3.631-3.85 5.879-4.798 2.248-0.948 4.602-1.239 7.062-0.872 2.466 0.37 4.854 1.413 7.163 3.128v0c2.315 1.719 4.006 3.705 5.073 5.959 1.062 2.25 1.464 4.588 1.206 7.013-0.258 2.426-1.222 4.764-2.894 7.015zM246.176 221.066v0c1.158-1.559 1.82-3.173 1.986-4.841 0.17-1.674-0.153-3.317-0.97-4.931-0.816-1.613-2.124-3.088-3.922-4.423v0c-1.793-1.332-3.58-2.155-5.36-2.471-1.78-0.315-3.447-0.149-5.001 0.497-1.549 0.641-2.903 1.741-4.06 3.3v0c-1.154 1.554-1.82 3.173-1.998 4.857-0.174 1.679 0.151 3.32 0.976 4.923 0.824 1.603 2.133 3.07 3.926 4.402v0c1.798 1.336 3.584 2.166 5.356 2.492 1.773 0.326 3.437 0.163 4.995-0.489 1.561-0.657 2.919-1.762 4.072-3.316zM264.275 195.838l-3.514 8.466-26.124-10.842 3.514-8.466c1.27-3.061 2.851-5.358 4.743-6.89 1.892-1.533 4.014-2.374 6.365-2.526 2.349-0.145 4.867 0.341 7.555 1.457v0c2.657 1.103 4.763 2.537 6.32 4.302 1.56 1.774 2.456 3.868 2.689 6.282 0.238 2.417-0.277 5.156-1.548 8.217zM239.6 190.893l19.439 8.068 1.814-4.371c0.981-2.363 1.372-4.396 1.175-6.1-0.2-1.697-0.895-3.152-2.085-4.364-1.187-1.203-2.788-2.223-4.802-3.058v0c-2.02-0.838-3.888-1.258-5.602-1.26-1.723 0.002-3.262 0.53-4.618 1.582-1.358 1.058-2.527 2.769-3.507 5.132v0z"
                                      fill="#ffffff" data-fill-palette-color="primary"></path>
                                    <path
                                      d="M33.958 100.517V100.517C32.994 103.093 31.597 105.108 29.766 106.56 27.935 108.012 25.822 108.867 23.426 109.124 21.021 109.386 18.49 109.02 15.833 108.026V108.026C13.158 107.025 10.998 105.637 9.355 103.862 7.71 102.094 6.67 100.059 6.235 97.76 5.794 95.458 6.055 93.019 7.018 90.442V90.442C8.16 87.388 9.839 85.171 12.053 83.791 14.259 82.415 16.8 81.968 19.677 82.45V82.45L18.037 86.836C16.392 86.617 14.909 86.911 13.588 87.719 12.267 88.527 11.249 89.887 10.533 91.799V91.799C9.561 94.401 9.679 96.791 10.888 98.969 12.097 101.148 14.25 102.817 17.348 103.975V103.975C20.427 105.127 23.132 105.275 25.461 104.419 27.785 103.562 29.433 101.832 30.405 99.231V99.231C31.12 97.319 31.269 95.634 30.852 94.176 30.441 92.72 29.568 91.545 28.233 90.649V90.649L29.874 86.263C32.255 87.748 33.817 89.73 34.56 92.208 35.301 94.693 35.1 97.463 33.958 100.517ZM55.617 64.957L52.408 68.031 40.574 40.86 43.898 37.676 70.479 50.721 67.269 53.795 60.849 50.542 52.643 58.403ZM45.67 42.903L51.194 55.165 57.677 48.955ZM98.519 35.654L94.575 37.113 84.923 11.035 101.277 4.982 102.461 8.18 90.051 12.773 93.101 21.015 103.385 17.209 104.555 20.37 94.271 24.176ZM156.478 28.523L138.817 27.783 139.98 0 157.642 0.739 157.499 4.147 144.039 3.583 143.677 12.245 155.944 12.758 155.805 16.086 143.537 15.572 143.162 24.542 156.621 25.106ZM187.903 38.423L184.122 36.581 196.304 11.584 204.911 15.778C206.883 16.739 208.344 17.864 209.293 19.152 210.243 20.441 210.754 21.799 210.825 23.227 210.893 24.661 210.59 26.069 209.916 27.452V27.452C209.161 29.001 208.066 30.204 206.631 31.06 205.194 31.923 203.471 32.204 201.464 31.904V31.904L201.621 45.108 197.224 42.966 197.28 30.529 192.811 28.351ZM198.538 16.599L194.205 25.491 198.816 27.738C200.526 28.572 201.982 28.769 203.184 28.33 204.389 27.885 205.317 26.995 205.967 25.66V25.66C206.618 24.325 206.744 23.067 206.347 21.886 205.949 20.704 204.872 19.685 203.114 18.828V18.828ZM226.763 66.851L223.859 63.809 243.968 44.603 246.873 47.645ZM244.007 94.117L242.368 89.987 271.995 89.258 273.693 93.536 251.597 113.246 249.958 109.115 255.39 104.393 251.199 93.831ZM268.183 93.209L254.744 93.708 258.055 102.052Z"
                                      fill="#ffffff" data-fill-palette-color="primary"></path>
                                    <path
                                      d="M3.91 143.687c0-5.967 4.837-10.805 10.805-10.805 5.967 0 10.805 4.837 10.805 10.805 0 5.967-4.837 10.805-10.805 10.805-5.967 0-10.805-4.837-10.805-10.805zM254.2 143.687c0-5.967 4.837-10.805 10.805-10.805 5.967 0 10.805 4.837 10.805 10.805 0 5.967-4.837 10.805-10.805 10.805-5.967 0-10.805-4.837-10.805-10.805z"
                                      fill="#ffffff" data-fill-palette-color="primary"></path>
                                  </svg></g>
                              </svg></g>
                          </svg></g>
                        <g></g>
                      </svg></g>
                    <defs></defs>
                  </svg>
                  <rect width="279.72" height="279.72" fill="none" stroke="none" visibility="hidden"></rect>
                </g>
              </svg></g>
          </svg>